<svg xmlns="http://www.w3.org/2000/svg" id="Layer_1" height="512" viewBox="0 0 53 53" width="512" fill="#0090ff"><g id="_x34_6"><path d="m46.4926758 2.6154785c-13.8552055 0-26.1646061 0-39.9960938 0-2.2050781 0-3.9990232 1.7944336-3.9990232 4 .0004998 3.1065827-.0018081-11.2537513.0048833 30.3823242 0 2.2055664 1.7939451 4 3.9999998 4h22.0498047c.5527344 0 1-.4477539 1-1s-.4472656-1-1-1h-22.0498047c-1.1025391 0-2-.8969727-2-2v-24.0214843h44v24.0214844c0 1.1030273-.8974609 2-2 2h-4.3701172c-.5527344 0-1 .4477539-1 1s.4472656 1 1 1h4.3701172c2.2060547 0 4-1.7944336 4-4v-30.3798829c-.0000005-2.2212229-1.8111272-4.0024414-4.0097661-4.0024414zm-26.5039063 8.3608399h-15.4863276v-4.3583985c0-1.1030273.8974609-2 2-2h13.4863281v6.3583985zm28.5039063 0h-26.5039063v-6.3583985h24.5136719c1.0904007 0 1.9902344.8935647 1.9902344 1.9975586z"></path><path d="m8.1342783 8.7961426h.3955078c.5527344 0 1-.4477539 1-1s-.4472656-1-1-1h-.3955078c-.5527349 0-1.0000005.4477539-1.0000005 1s.4472656 1 1.0000005 1z"></path><path d="m12.0454111 8.7961426h.3955078c.5527344 0 1-.4477539 1-1s-.4472656-1-1-1h-.3955078c-.5527344 0-1 .4477539-1 1s.4472656 1 1 1z"></path><path d="m15.9555674 8.7961426h.3955069c.5527344 0 1-.4477539 1-1s-.4472656-1-1-1h-.3955069c-.5527344 0-1 .4477539-1 1s.4472656 1 1 1z"></path><path d="m43.7758789 6.7961426h-17.0703125c-.5527344 0-1 .4477539-1 1s.4472656 1 1 1h17.0703125c.5527344 0 1-.4477539 1-1s-.4472656-1-1-1z"></path><path d="m31.3510742 46.404541c0 2.1943359 1.7939453 3.9799805 4 3.9799805 2.2506714 0 4.0559464-1.8586349 3.9892578-4.1098633 0-.0009766-.0009766-.0024414-.0009766-.0039063l-.3339233-9.9129028c4.2709961-1.5128784 7.3446655-5.5846558 7.3446655-10.3712769 0-6.0703125-4.9345703-11.0087891-10.9990234-11.0087891-6.0712891 0-11.0097656 4.9384766-11.0097656 11.0087891 0 4.7807617 3.0686646 8.8482056 7.3358154 10.3655396-.0371265 1.1446648.1270466-3.9169197-.3260498 10.0524292zm4 1.9799805c-1.1025391 0-2-.8881836-2-1.9799805.0998039-3.0746384.3216438-9.9091034.3095703-9.5371094 1.1070404.1724777 2.3068275.1641464 3.3613281.0004883l.3193359 9.4692383c.0302468 1.1181412-.8664054 2.0473633-1.9902343 2.0473633zm-9.0097656-22.3979492c0-4.9672852 4.0419922-9.0087891 9.0097656-9.0087891 4.9619141 0 8.9990234 4.0415039 8.9990234 9.0087891 0 4.1646118-2.8412476 7.6682739-6.6821289 8.6954956-1.4895134.4169731-3.1878624.3881187-4.5656738.0182495-3.8812256-1.0028687-6.7609863-4.5236206-6.7609863-8.7137451z"></path><path d="m7.9282231 34.6550293h-.430664c-.5527344 0-1 .4477539-1 1s.4472656 1 1 1h15.1191406c.5527344 0 1-.4477539 1-1s-.4472656-1-1-1h-.4306641v-12.3300781c0-.5522461-.4472656-1-1-1s-1 .4477539-1 1v12.3300781h-2.0859375v-6.5810547c0-.5522461-.4472656-1-1-1s-1 .4477539-1 1v6.5810547h-2.0859365v-8.9726563c0-.5522461-.4472656-1-1-1s-1 .4477539-1 1v8.9726563h-2.085938v-4.9023438c0-.5522461-.4472656-1-1-1s-1.0000005.4477539-1.0000005 1z"></path><path d="m13.3579111 18.9040527c-.2099609-.1728516-.4824219-.2490234-.7529297-.2207031-.2705078.0322266-.5166016.1738281-.6806641.3916016l-3.7949219 5.0356445c-.3320317.4414063-.2441411 1.0683594.1972656 1.4008789.4372053.3302803 1.0669804.2464504 1.4003906-.1972656l3.1669922-4.203125 3.2802725 2.6953125c.2197266.1811523.5087891.2607422.7871094.2158203.28125-.0429688.5302734-.2041016.6855469-.4423828l3.0924683-4.7442627c.2009315.3991699.6321774.6302013 1.0901489.53479.5400391-.1142578.8857422-.6445313.7714844-1.1850586l-.4362793-2.0661011c-.0606689-.2967138-.3298759-.5708904-.4328613-.6380005-.1594753-.1045933-.46422-.2026415-.758728-.1384277l-2.0664673.435791c-.5410156.1137695-.8867188.6445313-.7724609 1.1850586.0961914.4550781.489502.7539063.9333496.774353l-2.486084 3.8145142z"></path><path d="m35.8139648 28.4567871c.2099609.1865234.4892578.2749023.765625.2470703.2792969-.0283203.5332031-.1723633.7001953-.3969727l4.1035156-5.5039063c.3300781-.4428711.2382813-1.0693359-.2041016-1.3994141s-1.0693359-.2387695-1.3994141.2041016l-3.4521484 4.6303711-2.3242188-2.0634766c-.2177734-.1923828-.5068359-.2807617-.7919922-.2441406-.2871094.0371094-.5439453.1962891-.7041016.4370117l-3.2294922 4.8457031c-.3066406.4594727-.1816406 1.0805664.2773438 1.3867188.460289.3064213 1.0812798.181591 1.3867188-.2773438l2.5927582-3.8896484z"></path></g></svg>