<svg xmlns="http://www.w3.org/2000/svg" height="512" viewBox="0 0 64 64" width="512" fill="#0090ff"><g id="web_design-browser-programing-coding-mobilephone" data-name="web design-browser-programing-coding-mobilephone"><path d="m59 2h-54a3.009 3.009 0 0 0 -3 3v42a3.009 3.009 0 0 0 3 3h33v7a5 5 0 0 0 5 5h14a5 5 0 0 0 5-5v-52a3.009 3.009 0 0 0 -3-3zm1 55a3.009 3.009 0 0 1 -3 3h-14a3.009 3.009 0 0 1 -3-3v-1h20zm0-3h-20v-22h20zm0-24h-20v-1a3.009 3.009 0 0 1 3-3h14a3.009 3.009 0 0 1 3 3zm0-4.97a4.924 4.924 0 0 0 -3-1.03h-14a5 5 0 0 0 -5 5v19h-33a1 1 0 0 1 -1-1v-35h56zm0-15.03h-56v-5a1 1 0 0 1 1-1h54a1 1 0 0 1 1 1z"></path><path d="m8 6h-1a1 1 0 0 0 0 2h1a1 1 0 0 0 0-2z"></path><path d="m12 6h-1a1 1 0 0 0 0 2h1a1 1 0 0 0 0-2z"></path><path d="m16 6h-1a1 1 0 0 0 0 2h1a1 1 0 0 0 0-2z"></path><path d="m35 18h-28a1 1 0 0 0 -1 1v22a1 1 0 0 0 1 1h28a1 1 0 0 0 1-1v-22a1 1 0 0 0 -1-1zm-26.2 22 8.2-13.11 8.2 13.11zm18.75 0-2.18-3.5 2.63-3.76 5.08 7.26zm6.45-2.17-5.18-7.4a1 1 0 0 0 -1.64 0l-2.96 4.23-6.37-10.19a1.048 1.048 0 0 0 -1.7 0l-8.15 13.04v-17.51h26z"></path><path d="m25 28a3 3 0 1 0 -3-3 3 3 0 0 0 3 3zm0-4a1 1 0 1 1 -1 1 1 1 0 0 1 1-1z"></path><path d="m57 6h-35a1 1 0 0 0 0 2h35a1 1 0 0 0 0-2z"></path><path d="m51 57h-2a1 1 0 0 0 0 2h2a1 1 0 0 0 0-2z"></path><path d="m51 27h-2a1 1 0 0 0 0 2h2a1 1 0 0 0 0-2z"></path><path d="m46.707 38.293a1 1 0 0 0 -1.414 0l-4 4a1 1 0 0 0 0 1.414l4 4a1 1 0 0 0 1.414-1.414l-3.293-3.293 3.293-3.293a1 1 0 0 0 0-1.414z"></path><path d="m58.707 42.293-4-4a1 1 0 0 0 -1.414 1.414l3.293 3.293-3.293 3.293a1 1 0 1 0 1.414 1.414l4-4a1 1 0 0 0 0-1.414z"></path><path d="m52.274 35.039a1 1 0 0 0 -1.236.686l-4 14a1 1 0 0 0 .688 1.236.962.962 0 0 0 .274.039 1 1 0 0 0 .961-.725l4-14a1 1 0 0 0 -.687-1.236z"></path></g></svg>